<svg xmlns="http://www.w3.org/2000/svg" xmlns:xlink="http://www.w3.org/1999/xlink" width="500" zoomAndPan="magnify" viewBox="0 0 375 374.999991" height="500" preserveAspectRatio="xMidYMid meet" version="1.0"><defs><clipPath id="c3520786a8"><path d="M 27 28.070312 L 347 28.070312 L 347 346.820312 L 27 346.820312 Z M 27 28.070312 " clip-rule="nonzero"/></clipPath></defs><g clip-path="url(#c3520786a8)"><path fill="#0f6fde" d="M 186.898438 346.820312 C 98.707031 346.820312 27.214844 275.464844 27.214844 187.445312 C 27.214844 99.425781 98.707031 28.070312 186.898438 28.070312 C 275.085938 28.070312 346.582031 99.425781 346.582031 187.445312 C 346.582031 275.464844 275.085938 346.820312 186.898438 346.820312 Z M 184.71875 244.132812 L 184.71875 212.4375 C 184.6875 211.949219 184.867188 211.46875 185.214844 211.125 C 185.5625 210.777344 186.042969 210.59375 186.535156 210.628906 L 223.734375 210.628906 C 249.957031 209.570312 270.660156 188.019531 270.609375 161.824219 C 270.5625 135.628906 249.78125 114.152344 223.550781 113.191406 L 132.460938 113.191406 C 130.457031 113.191406 128.832031 114.8125 128.832031 116.8125 L 128.832031 244.675781 C 128.832031 260.078125 141.34375 272.566406 156.777344 272.566406 C 172.207031 272.566406 184.71875 260.078125 184.71875 244.675781 C 184.960938 244.3125 184.960938 244.132812 184.71875 244.132812 Z M 186.535156 168.972656 L 221.738281 168.972656 C 225.746094 168.972656 228.996094 165.730469 228.996094 161.730469 C 228.996094 157.726562 225.746094 154.484375 221.738281 154.484375 L 174.015625 154.484375 C 172.011719 154.484375 170.386719 156.105469 170.386719 158.105469 L 170.386719 244.496094 C 170.386719 251.996094 164.292969 258.078125 156.777344 258.078125 C 149.257812 258.078125 143.167969 251.996094 143.167969 244.496094 L 143.167969 129.3125 C 143.132812 128.820312 143.316406 128.339844 143.664062 127.996094 C 144.011719 127.648438 144.492188 127.46875 144.980469 127.5 L 221.738281 127.5 C 234.054688 127.273438 245.558594 133.621094 251.914062 144.15625 C 258.269531 154.691406 258.511719 167.808594 252.546875 178.566406 C 246.585938 189.324219 235.324219 196.09375 223.007812 196.320312 L 186.535156 196.320312 C 186.042969 196.351562 185.5625 196.171875 185.214844 195.824219 C 184.867188 195.480469 184.6875 195 184.71875 194.507812 L 184.71875 170.964844 C 184.714844 169.933594 185.503906 169.066406 186.535156 168.972656 Z M 186.535156 168.972656 " fill-opacity="1" fill-rule="evenodd"/></g></svg>