<svg xmlns="http://www.w3.org/2000/svg" xmlns:xlink="http://www.w3.org/1999/xlink" width="500" zoomAndPan="magnify" viewBox="0 0 375 374.999991" height="500" preserveAspectRatio="xMidYMid meet" version="1.0"><defs><clipPath id="ceac01e1c3"><path d="M 6.40625 6.40625 L 368.652344 6.40625 L 368.652344 368.652344 L 6.40625 368.652344 Z M 6.40625 6.40625 " clip-rule="nonzero"/></clipPath></defs><g clip-path="url(#ceac01e1c3)"><path fill="#f92902" d="M 43.878906 6.40625 L 331.179688 6.40625 C 351.789062 6.40625 368.652344 23.269531 368.652344 43.878906 L 368.652344 331.179688 C 368.652344 351.789062 351.789062 368.652344 331.179688 368.652344 L 43.878906 368.652344 C 36.273438 368.652344 29.175781 366.351562 23.25 362.417969 L 222.484375 231.210938 L 268.921875 278.566406 L 294.519531 83.875 L 97.476562 103.738281 L 143.976562 151.15625 L 7.183594 338.753906 C 6.675781 336.308594 6.40625 333.773438 6.40625 331.179688 L 6.40625 43.878906 C 6.40625 23.269531 23.269531 6.40625 43.878906 6.40625 " fill-opacity="1" fill-rule="evenodd"/></g></svg>